<?xml version="1.0" standalone="no"?>
<!DOCTYPE svg PUBLIC "-//W3C//DTD SVG 20010904//EN"
 "http://www.w3.org/TR/2001/REC-SVG-20010904/DTD/svg10.dtd">
<svg version="1.0" xmlns="http://www.w3.org/2000/svg"
 width="800.000000pt" height="800.000000pt" viewBox="0 0 800.000000 800.000000"
 preserveAspectRatio="xMidYMid meet">

<g transform="translate(0.000000,800.000000) scale(0.100000,-0.100000)"
fill="#000000" stroke="none">
<path d="M1750 6689 c-393 -120 -731 -223 -751 -229 -30 -8 -42 -20 -65 -64
l-28 -53 234 -766 233 -765 51 -27 51 -27 460 140 c505 154 982 299 1033 314
26 7 38 20 59 63 l27 54 -229 748 c-125 411 -232 755 -236 765 -9 17 -94 68
-113 67 -6 0 -333 -99 -726 -220z m392 -145 c28 -14 54 -36 63 -54 14 -28 14
-33 -6 -72 -37 -73 -78 -127 -160 -208 -45 -45 -79 -88 -79 -99 0 -11 -5 -21
-11 -23 -14 -5 153 -155 287 -259 114 -88 180 -156 190 -194 5 -20 -2 -35 -31
-71 -69 -84 -169 -129 -222 -100 -33 18 -156 136 -307 294 -108 114 -136 130
-136 79 0 -14 9 -45 20 -69 11 -25 29 -85 40 -134 11 -49 27 -100 34 -114 8
-14 17 -51 21 -82 6 -49 4 -62 -15 -93 -12 -19 -26 -35 -31 -35 -5 0 -18 -9
-29 -20 -16 -16 -33 -20 -84 -20 -81 0 -106 18 -135 102 -12 35 -26 72 -30 83
-5 11 -14 40 -20 65 -7 25 -19 65 -28 90 -8 25 -23 77 -33 115 -10 39 -34 120
-53 180 -19 61 -40 135 -47 165 -7 30 -17 63 -22 73 -5 10 -17 50 -28 90 -43
170 -37 198 49 223 31 10 84 19 118 22 58 4 64 2 91 -24 22 -22 31 -45 41
-101 7 -40 17 -75 22 -79 5 -3 9 -24 10 -47 0 -23 4 -50 8 -61 6 -17 11 -14
37 20 17 22 46 62 64 89 19 28 54 75 78 105 25 30 54 74 64 98 14 31 30 48 61
64 87 44 126 44 209 2z"/>
<path d="M2658 4416 c-15 -8 -28 -12 -31 -10 -8 8 -97 -16 -313 -84 -179 -56
-231 -76 -269 -106 -26 -20 -54 -36 -61 -36 -7 0 -24 -14 -39 -32 -41 -49 -42
-44 110 -578 64 -226 134 -446 157 -500 23 -52 68 -94 117 -111 56 -19 182 -5
311 35 189 59 242 75 302 90 32 8 85 25 118 37 54 19 61 25 70 58 20 73 5 134
-47 183 -57 54 -70 54 -221 -7 -129 -53 -201 -76 -316 -104 -54 -13 -66 -7
-66 37 0 13 -11 47 -24 75 -45 101 -55 88 111 141 82 26 177 58 213 71 36 12
81 28 100 35 75 26 84 34 92 75 10 62 -14 142 -54 176 -46 39 -83 45 -138 20
-25 -11 -55 -21 -68 -21 -12 0 -33 -6 -45 -14 -12 -8 -85 -32 -162 -54 -77
-22 -147 -43 -157 -47 -17 -7 -19 -1 -58 150 -26 101 -32 89 72 123 132 43
315 90 382 98 44 5 61 12 72 29 21 33 27 113 11 170 -11 42 -20 55 -61 83 -54
36 -69 38 -108 18z"/>
<path d="M4853 2744 l-43 -25 25 -49 c14 -27 25 -52 25 -55 0 -3 -112 -5 -249
-5 -189 0 -252 -3 -258 -12 -4 -7 -10 -193 -13 -413 l-5 -400 -34 -80 c-19
-43 -61 -118 -92 -165 l-58 -85 34 -32 c19 -18 38 -33 42 -33 16 0 95 119 143
215 68 136 80 195 80 392 l0 162 506 3 c487 3 506 4 520 22 19 27 21 383 2
409 -12 15 -42 17 -252 19 l-239 3 -41 77 c-22 43 -43 78 -46 78 -3 0 -24 -12
-47 -26z m527 -364 l0 -120 -465 0 -465 0 0 120 0 120 465 0 465 0 0 -120z"/>
<path d="M3580 2305 l0 -455 -250 0 -250 0 0 -50 0 -50 250 0 250 0 0 -201 0
-200 53 3 52 3 3 197 2 197 113 3 112 3 3 48 3 47 -115 0 -116 0 0 455 0 455
-55 0 -55 0 0 -455z"/>
<path d="M6150 2711 l0 -51 -201 0 -200 0 3 -52 3 -53 198 -3 197 -2 0 -40 0
-40 55 0 55 0 0 40 0 40 215 0 215 0 0 -40 0 -40 55 0 55 0 0 40 0 40 198 2
197 3 3 53 3 52 -200 0 -201 0 0 50 0 50 -55 0 -55 0 0 -50 0 -50 -214 0 -215
0 -3 48 -3 47 -52 3 -53 3 0 -50z"/>
<path d="M1258 2632 c-126 -144 -282 -264 -381 -294 -41 -12 -42 -18 -17 -83
12 -31 20 -31 90 -2 112 46 286 185 390 310 l55 67 179 0 180 0 102 -108 c108
-114 172 -168 268 -226 69 -41 154 -72 166 -60 5 5 12 28 16 50 l6 42 -49 16
c-101 34 -277 177 -395 323 l-51 63 -237 0 -237 0 -85 -98z"/>
<path d="M2990 2712 c-28 -13 -78 -17 -258 -20 l-223 -4 3 -51 3 -52 128 -3
127 -3 0 -99 0 -100 -136 0 -135 0 3 -52 3 -53 133 -3 132 -3 0 -459 0 -460
55 0 55 0 0 338 0 337 50 -85 c27 -47 53 -92 58 -100 9 -13 16 -12 56 9 26 13
45 27 44 31 -2 3 -49 87 -105 187 -57 99 -103 186 -103 192 0 7 33 11 100 11
l100 0 0 55 0 55 -100 0 -100 0 0 99 0 99 53 6 c57 7 157 49 157 65 0 18 -42
81 -53 80 -7 0 -28 -8 -47 -17z"/>
<path d="M3141 2583 c-12 -25 -20 -47 -19 -49 6 -5 291 -145 316 -155 20 -8
25 -4 44 36 12 24 20 46 17 49 -7 6 -188 96 -265 131 l-71 33 -22 -45z"/>
<path d="M5822 2418 c-8 -8 -12 -47 -12 -110 l0 -98 50 0 50 0 0 55 0 55 560
0 560 0 0 -55 0 -55 55 0 55 0 0 91 c0 145 81 129 -663 129 -487 0 -646 -3
-655 -12z"/>
<path d="M3157 2273 c-3 -5 -12 -25 -21 -46 l-16 -38 166 -80 c91 -43 169 -77
173 -75 10 7 45 85 40 90 -7 8 -322 156 -330 156 -4 0 -10 -3 -12 -7z"/>
<path d="M1060 2215 l0 -55 230 0 230 0 0 -120 0 -120 -230 0 -230 0 0 -55 0
-55 230 0 230 0 0 -140 0 -140 -316 0 -315 0 3 -47 3 -48 683 -3 682 -2 0 50
0 50 -315 0 -315 0 0 140 0 140 233 2 232 3 3 53 3 52 -235 0 -236 0 0 120 0
120 233 2 232 3 3 53 3 52 -520 0 -521 0 0 -55z"/>
<path d="M6002 2208 l3 -53 468 -3 467 -2 0 55 0 55 -471 0 -470 0 3 -52z"/>
<path d="M2611 2138 c-17 -157 -46 -358 -77 -526 -14 -79 -22 -148 -18 -152 5
-5 28 -12 50 -16 l41 -6 12 48 c28 123 73 421 105 700 6 51 6 51 -25 58 -77
15 -75 18 -88 -106z"/>
<path d="M5802 2038 l3 -53 225 -5 225 -5 -90 -28 c-49 -16 -152 -40 -227 -55
l-138 -27 0 -30 c0 -61 9 -75 44 -69 123 21 289 59 384 89 l112 36 43 -19 42
-18 -84 -33 c-112 -43 -292 -94 -430 -122 l-113 -22 5 -50 c4 -27 8 -51 10
-54 6 -5 236 44 338 72 113 32 253 82 311 111 40 20 47 21 52 8 14 -37 5 -54
-42 -78 -108 -54 -398 -142 -605 -182 l-89 -17 7 -36 c11 -65 15 -71 38 -66
12 2 75 16 140 30 155 34 365 96 472 139 84 34 85 34 85 12 0 -45 -69 -90
-177 -116 -48 -11 -53 -15 -53 -38 0 -15 3 -38 7 -51 5 -21 10 -23 52 -18 115
14 234 88 267 165 17 42 19 233 3 283 -17 48 -55 97 -106 132 -43 31 -43 31
-21 44 17 9 104 12 341 13 l317 0 0 55 0 55 -676 0 -675 0 3 -52z"/>
<path d="M4589 1943 c-11 -13 -14 -72 -14 -287 l0 -271 55 0 55 0 3 43 3 42
344 0 344 0 3 -42 3 -43 53 -3 52 -3 0 271 c0 168 -4 279 -10 291 -10 18 -26
19 -444 19 -391 0 -435 -2 -447 -17z m791 -233 l0 -140 -345 0 -345 0 0 140 0
140 345 0 345 0 0 -140z"/>
<path d="M6646 1903 c11 -75 56 -192 98 -256 43 -65 147 -164 212 -202 24 -14
74 -37 109 -51 l65 -24 10 25 c24 64 24 74 -6 86 -95 39 -160 76 -209 121 -60
54 -120 134 -108 141 5 3 69 22 143 42 74 21 137 40 139 41 2 2 -2 26 -9 53
-14 59 7 59 -188 1 -70 -21 -130 -36 -134 -34 -3 2 -9 27 -13 54 l-7 50 -55 0
-54 0 7 -47z"/>
<path d="M4477 1013 c-4 -3 -7 -21 -7 -40 0 -31 -2 -33 -35 -33 -30 0 -35 3
-35 24 0 13 -7 27 -16 30 -12 5 -15 -2 -12 -37 3 -39 5 -42 36 -47 l34 -5 -24
-21 c-12 -12 -33 -27 -45 -33 -13 -6 -23 -16 -23 -21 0 -16 26 -11 53 10 19
15 40 20 91 20 36 0 66 -4 66 -9 0 -5 -12 -19 -26 -30 -25 -19 -28 -20 -62 -5
-21 9 -43 18 -49 21 -29 12 -10 -25 20 -39 l32 -16 -37 -16 c-21 -9 -47 -16
-58 -16 -12 0 -20 -7 -20 -16 0 -19 40 -13 112 18 45 19 138 105 138 128 0 6
-28 10 -70 10 -90 0 -92 18 -2 22 l67 3 3 38 c2 28 0 37 -12 37 -10 0 -16 -9
-16 -25 0 -22 -4 -25 -40 -25 l-40 0 0 40 c0 38 -8 49 -23 33z"/>
<path d="M3402 985 c-62 -79 -12 -247 63 -213 27 12 55 73 55 119 0 34 -25
100 -43 111 -24 15 -56 8 -75 -17z m76 -30 c27 -60 6 -159 -32 -153 -30 4 -47
46 -43 100 6 75 51 106 75 53z"/>
<path d="M4111 994 c-16 -12 -20 -19 -12 -27 8 -8 14 -8 23 1 21 21 67 15 79
-12 15 -32 -8 -74 -66 -123 -25 -20 -45 -45 -45 -55 0 -16 10 -18 75 -18 60 0
75 3 75 15 0 12 -13 15 -56 15 l-57 0 52 54 c43 47 51 61 51 94 0 46 -23 72
-66 72 -16 0 -40 -7 -53 -16z"/>
<path d="M3890 989 c0 -6 9 -13 20 -16 18 -5 20 -14 20 -90 0 -77 -2 -85 -20
-90 -34 -9 -16 -28 28 -31 33 -2 42 0 42 12 0 9 -4 16 -10 16 -6 0 -10 42 -10
105 l0 105 -35 0 c-19 0 -35 -5 -35 -11z"/>
<path d="M3620 877 c0 -16 9 -17 82 -15 51 2 83 7 85 15 3 8 -21 12 -81 15
-77 3 -86 1 -86 -15z"/>
<path d="M1067 843 c133 -2 353 -2 490 0 136 1 28 2 -242 2 -269 0 -381 -1
-248 -2z"/>
<path d="M6473 843 c141 -2 373 -2 515 0 141 1 25 2 -258 2 -283 0 -399 -1
-257 -2z"/>
</g>
</svg>
